<?xml version="1.0" encoding="UTF-8" standalone="no"?><svg xmlns="http://www.w3.org/2000/svg" xmlns:xlink="http://www.w3.org/1999/xlink" contentScriptType="application/ecmascript" contentStyleType="text/css" height="261px" preserveAspectRatio="none" style="width:445px;height:261px;background:#FFFFFF;" version="1.1" viewBox="0 0 445 261" width="445px" zoomAndPan="magnify"><defs><filter height="300%" id="f162wy7lqukyo1" width="300%" x="-1" y="-1"><feGaussianBlur result="blurOut" stdDeviation="2.0"/><feColorMatrix in="blurOut" result="blurOut2" type="matrix" values="0 0 0 0 0 0 0 0 0 0 0 0 0 0 0 0 0 0 .4 0"/><feOffset dx="4.0" dy="4.0" in="blurOut2" result="blurOut3"/><feBlend in="SourceGraphic" in2="blurOut3" mode="normal"/></filter></defs><g><!--MD5=[815249f79c2c08157ac02b3106e03757]
cluster Database--><path d="M6,16 C6,6 217,6 217,6 C217,6 428,6 428,16 L428,108 C428,118 217,118 217,118 C217,118 6,118 6,108 L6,16 " fill="#FFFFFF" filter="url(#f162wy7lqukyo1)" style="stroke:#000000;stroke-width:1.0;"/><path d="M6,16 C6,26 217,26 217,26 C217,26 428,26 428,16 " fill="none" style="stroke:#000000;stroke-width:1.0;"/><text fill="#000000" font-family="sans-serif" font-size="14" font-weight="bold" lengthAdjust="spacing" textLength="66" x="184" y="41.5352">Database</text><!--MD5=[f72e8905bd6e3a370cb106f12698fafd]
cluster Microservices--><polygon fill="#FFFFFF" filter="url(#f162wy7lqukyo1)" points="56,152,66,142,378,142,378,234,368,244,56,244,56,152" style="stroke:#000000;stroke-width:1.0;"/><line style="stroke:#000000;stroke-width:1.0;" x1="368" x2="378" y1="152" y2="142"/><line style="stroke:#000000;stroke-width:1.0;" x1="56" x2="368" y1="152" y2="152"/><line style="stroke:#000000;stroke-width:1.0;" x1="368" x2="368" y1="152" y2="244"/><text fill="#000000" font-family="sans-serif" font-size="14" font-weight="bold" lengthAdjust="spacing" textLength="98" x="164" y="168.5352">Microservices</text><!--MD5=[21b56d531e05093843fc62a9f735e1e0]
entity ShemaC--><rect fill="#FFFFFF" filter="url(#f162wy7lqukyo1)" height="46.4883" style="stroke:#000000;stroke-width:1.0;" width="107" x="304.5" y="56"/><rect fill="#FFFFFF" height="10" style="stroke:#000000;stroke-width:1.0;" width="15" x="391.5" y="61"/><rect fill="#FFFFFF" height="2" style="stroke:#000000;stroke-width:1.0;" width="4" x="389.5" y="63"/><rect fill="#FFFFFF" height="2" style="stroke:#000000;stroke-width:1.0;" width="4" x="389.5" y="67"/><text fill="#000000" font-family="sans-serif" font-size="14" lengthAdjust="spacing" textLength="67" x="319.5" y="89.5352">Schema C</text><!--MD5=[d6738fd1200ac47352c3feea167fe66e]
entity ShemaB--><rect fill="#FFFFFF" filter="url(#f162wy7lqukyo1)" height="46.4883" style="stroke:#000000;stroke-width:1.0;" width="105" x="164.5" y="56"/><rect fill="#FFFFFF" height="10" style="stroke:#000000;stroke-width:1.0;" width="15" x="249.5" y="61"/><rect fill="#FFFFFF" height="2" style="stroke:#000000;stroke-width:1.0;" width="4" x="247.5" y="63"/><rect fill="#FFFFFF" height="2" style="stroke:#000000;stroke-width:1.0;" width="4" x="247.5" y="67"/><text fill="#000000" font-family="sans-serif" font-size="14" lengthAdjust="spacing" textLength="65" x="179.5" y="89.5352">Schema B</text><!--MD5=[69e578d6e2de9848a87e24ac88353aea]
entity ShemaA--><rect fill="#FFFFFF" filter="url(#f162wy7lqukyo1)" height="46.4883" style="stroke:#000000;stroke-width:1.0;" width="107" x="22.5" y="56"/><rect fill="#FFFFFF" height="10" style="stroke:#000000;stroke-width:1.0;" width="15" x="109.5" y="61"/><rect fill="#FFFFFF" height="2" style="stroke:#000000;stroke-width:1.0;" width="4" x="107.5" y="63"/><rect fill="#FFFFFF" height="2" style="stroke:#000000;stroke-width:1.0;" width="4" x="107.5" y="67"/><text fill="#000000" font-family="sans-serif" font-size="14" lengthAdjust="spacing" textLength="67" x="37.5" y="89.5352">Schema A</text><!--MD5=[ce2b2ca345d0c59eb0fad61889427b8e]
entity MS1--><rect fill="#FFFFFF" filter="url(#f162wy7lqukyo1)" height="46.4883" style="stroke:#000000;stroke-width:1.0;" width="73" x="72.5" y="182"/><rect fill="#FFFFFF" height="10" style="stroke:#000000;stroke-width:1.0;" width="15" x="125.5" y="187"/><rect fill="#FFFFFF" height="2" style="stroke:#000000;stroke-width:1.0;" width="4" x="123.5" y="189"/><rect fill="#FFFFFF" height="2" style="stroke:#000000;stroke-width:1.0;" width="4" x="123.5" y="193"/><text fill="#000000" font-family="sans-serif" font-size="14" lengthAdjust="spacing" textLength="33" x="87.5" y="215.5352">MS 1</text><!--MD5=[ce9ede88145a854f470bfeec3753b108]
entity MS2--><rect fill="#FFFFFF" filter="url(#f162wy7lqukyo1)" height="46.4883" style="stroke:#000000;stroke-width:1.0;" width="73" x="180.5" y="182"/><rect fill="#FFFFFF" height="10" style="stroke:#000000;stroke-width:1.0;" width="15" x="233.5" y="187"/><rect fill="#FFFFFF" height="2" style="stroke:#000000;stroke-width:1.0;" width="4" x="231.5" y="189"/><rect fill="#FFFFFF" height="2" style="stroke:#000000;stroke-width:1.0;" width="4" x="231.5" y="193"/><text fill="#000000" font-family="sans-serif" font-size="14" lengthAdjust="spacing" textLength="33" x="195.5" y="215.5352">MS 2</text><!--MD5=[e2a8d548366ff7c1d9736d7779a25634]
entity MS3--><rect fill="#FFFFFF" filter="url(#f162wy7lqukyo1)" height="46.4883" style="stroke:#000000;stroke-width:1.0;" width="73" x="288.5" y="182"/><rect fill="#FFFFFF" height="10" style="stroke:#000000;stroke-width:1.0;" width="15" x="341.5" y="187"/><rect fill="#FFFFFF" height="2" style="stroke:#000000;stroke-width:1.0;" width="4" x="339.5" y="189"/><rect fill="#FFFFFF" height="2" style="stroke:#000000;stroke-width:1.0;" width="4" x="339.5" y="193"/><text fill="#000000" font-family="sans-serif" font-size="14" lengthAdjust="spacing" textLength="33" x="303.5" y="215.5352">MS 3</text><!--MD5=[3ac5c4e86122c569345193aa7f1450a5]
reverse link ShemaA to MS1--><path d="M83.2,107.07 C89.14,129.39 97.47,160.68 103.04,181.61 " fill="none" id="ShemaA-backto-MS1" style="stroke:#000000;stroke-width:1.0;"/><polygon fill="#000000" points="81.9,102.17,80.3433,111.8951,83.183,107.0026,88.0755,109.8423,81.9,102.17" style="stroke:#000000;stroke-width:1.0;"/><!--MD5=[36f6b57df0c3df05217a9a9ad7db4c06]
reverse link ShemaB to MS2--><path d="M217,107.35 C217,129.65 217,160.76 217,181.61 " fill="none" id="ShemaB-backto-MS2" style="stroke:#000000;stroke-width:1.0;"/><polygon fill="#000000" points="217,102.17,213,111.17,217,107.17,221,111.17,217,102.17" style="stroke:#000000;stroke-width:1.0;"/><!--MD5=[a18d63d6dd5245776ed1c23369f4e5f0]
reverse link ShemaC to MS3--><path d="M350.8,107.07 C344.86,129.39 336.53,160.68 330.96,181.61 " fill="none" id="ShemaC-backto-MS3" style="stroke:#000000;stroke-width:1.0;"/><polygon fill="#000000" points="352.1,102.17,345.9245,109.8423,350.817,107.0026,353.6567,111.8951,352.1,102.17" style="stroke:#000000;stroke-width:1.0;"/><!--MD5=[9a780a0b8484ae6cbb86c11e73184198]
@startuml
<style>
queue {
   LineThickness: 1
   BackGroundColor: white
   LineColor: black
}
interface {
   BackGroundColor: white
   LineColor: black
}
component {
   BackGroundColor: white
   LineColor: black
}
database {
   BackGroundColor: white
   LineColor: black
}
node {
   BackGroundColor: white
   LineColor: black
}
rectangle{
   LineColor: black
}
arrow {
   LineColor: black
}
</style>

top to bottom direction
'left to right direction
database Database {
  component [Schema C] as ShemaC
  component [Schema B] as ShemaB
  component [Schema A] as ShemaA
}


node Microservices {
   component [MS 1] as MS1
   component [MS 2] as MS2
   component [MS 3] as MS3
}

ShemaA <- - MS1

ShemaB <- - MS2

ShemaC <- - MS3

@enduml

@startuml
<style>
queue {
   LineThickness: 1
   BackGroundColor: white
   LineColor: black
}
interface {
   BackGroundColor: white
   LineColor: black
}
component {
   BackGroundColor: white
   LineColor: black
}
database {
   BackGroundColor: white
   LineColor: black
}
node {
   BackGroundColor: white
   LineColor: black
}
rectangle{
   LineColor: black
}
arrow {
   LineColor: black
}
</style>

top to bottom direction
database Database {
  component [Schema C] as ShemaC
  component [Schema B] as ShemaB
  component [Schema A] as ShemaA
}


node Microservices {
   component [MS 1] as MS1
   component [MS 2] as MS2
   component [MS 3] as MS3
}

ShemaA <- - MS1

ShemaB <- - MS2

ShemaC <- - MS3

@enduml

PlantUML version 1.2022.1(Tue Feb 01 19:19:58 CET 2022)
(GPL source distribution)
Java Runtime: OpenJDK Runtime Environment
JVM: OpenJDK 64-Bit Server VM
Default Encoding: UTF-8
Language: en
Country: GB
--></g></svg>
