<?xml version="1.0" encoding="UTF-8" standalone="no"?><svg xmlns="http://www.w3.org/2000/svg" xmlns:xlink="http://www.w3.org/1999/xlink" contentScriptType="application/ecmascript" contentStyleType="text/css" height="136px" preserveAspectRatio="none" style="width:764px;height:136px;background:#FFFFFF;" version="1.1" viewBox="0 0 764 136" width="764px" zoomAndPan="magnify"><defs><filter height="300%" id="f1a02aym3mrf3y" width="300%" x="-1" y="-1"><feGaussianBlur result="blurOut" stdDeviation="2.0"/><feColorMatrix in="blurOut" result="blurOut2" type="matrix" values="0 0 0 0 0 0 0 0 0 0 0 0 0 0 0 0 0 0 .4 0"/><feOffset dx="4.0" dy="4.0" in="blurOut2" result="blurOut3"/><feBlend in="SourceGraphic" in2="blurOut3" mode="normal"/></filter></defs><g><!--MD5=[ce2b2ca345d0c59eb0fad61889427b8e]
entity MS1--><rect fill="#FFFFFF" filter="url(#f1a02aym3mrf3y)" height="46.4883" style="stroke:#000000;stroke-width:1.0;" width="73" x="40.5" y="7"/><rect fill="#FFFFFF" height="10" style="stroke:#000000;stroke-width:1.0;" width="15" x="93.5" y="12"/><rect fill="#FFFFFF" height="2" style="stroke:#000000;stroke-width:1.0;" width="4" x="91.5" y="14"/><rect fill="#FFFFFF" height="2" style="stroke:#000000;stroke-width:1.0;" width="4" x="91.5" y="18"/><text fill="#000000" font-family="sans-serif" font-size="14" lengthAdjust="spacing" textLength="33" x="55.5" y="40.5352">MS 1</text><!--MD5=[d8ffac6541c0cf4a7053a88b1533a06d]
entity LT1--><rect fill="#FFFFFF" filter="url(#f1a02aym3mrf3y)" height="36.4883" style="stroke:#000000;stroke-width:1.0;" width="140" x="7" y="88"/><text fill="#000000" font-family="sans-serif" font-size="14" lengthAdjust="spacing" textLength="120" x="17" y="111.5352">Local Transaction</text><!--MD5=[9762e67b79b719797c568dcdd43c32f7]
entity Queue--><path d="M352,18 L407,18 C412,18 412,31.2441 412,31.2441 C412,31.2441 412,44.4883 407,44.4883 L352,44.4883 C347,44.4883 347,31.2441 347,31.2441 C347,31.2441 347,18 352,18 " fill="#FFFFFF" filter="url(#f1a02aym3mrf3y)" style="stroke:#000000;stroke-width:1.0;"/><path d="M407,18 C402,18 402,31.2441 402,31.2441 C402,44.4883 407,44.4883 407,44.4883 " fill="none" style="stroke:#000000;stroke-width:1.0;"/><text fill="#000000" font-family="sans-serif" font-size="14" lengthAdjust="spacing" textLength="45" x="352" y="36.5352">Queue</text><!--MD5=[ce9ede88145a854f470bfeec3753b108]
entity MS2--><rect fill="#FFFFFF" filter="url(#f1a02aym3mrf3y)" height="46.4883" style="stroke:#000000;stroke-width:1.0;" width="73" x="645.5" y="7"/><rect fill="#FFFFFF" height="10" style="stroke:#000000;stroke-width:1.0;" width="15" x="698.5" y="12"/><rect fill="#FFFFFF" height="2" style="stroke:#000000;stroke-width:1.0;" width="4" x="696.5" y="14"/><rect fill="#FFFFFF" height="2" style="stroke:#000000;stroke-width:1.0;" width="4" x="696.5" y="18"/><text fill="#000000" font-family="sans-serif" font-size="14" lengthAdjust="spacing" textLength="33" x="660.5" y="40.5352">MS 2</text><!--MD5=[25349e01bb79afcf37d521fd28c79368]
entity LT2--><rect fill="#FFFFFF" filter="url(#f1a02aym3mrf3y)" height="36.4883" style="stroke:#000000;stroke-width:1.0;" width="140" x="612" y="88"/><text fill="#000000" font-family="sans-serif" font-size="14" lengthAdjust="spacing" textLength="120" x="622" y="111.5352">Local Transaction</text><!--MD5=[e083b5348419dc6a7d7f067c6fb60f35]
link MS1 to LT1--><path d="M77,53.07 C77,64.67 77,76.28 77,87.89 " fill="none" id="MS1-LT1" style="stroke:#000000;stroke-width:1.0;"/><!--MD5=[dbe43301760311b3bdadb96583c2c592]
link MS2 to LT2--><path d="M682,53.07 C682,64.67 682,76.28 682,87.89 " fill="none" id="MS2-LT2" style="stroke:#000000;stroke-width:1.0;"/><!--MD5=[a009410c22f7acc106702dbb754381dc]
link MS1 to Queue--><path d="M113.65,30.12 C171.15,30.31 283.77,30.68 341.88,30.88 " fill="none" id="MS1-to-Queue" style="stroke:#000000;stroke-width:1.0;"/><polygon fill="#000000" points="346.99,30.9,338.0015,26.8743,341.99,30.8857,337.9786,34.8743,346.99,30.9" style="stroke:#000000;stroke-width:1.0;"/><text fill="#000000" font-family="sans-serif" font-size="13" lengthAdjust="spacing" textLength="95" x="199.5" y="27.5684">Message/Event</text><!--MD5=[a92c54e75633d925253a2e05cf76603d]
link Queue to MS1--><path d="M352.85,44.01 C342.07,48.79 329.22,53.61 317,56 C255.93,67.94 238.71,63.97 177,56 C157.51,53.48 136.38,48.29 118.67,43.2 " fill="none" id="Queue-to-MS1" style="stroke:#000000;stroke-width:1.0;"/><polygon fill="#000000" points="113.77,41.77,121.2725,48.1506,118.5661,43.1831,123.5336,40.4768,113.77,41.77" style="stroke:#000000;stroke-width:1.0;"/><text fill="#000000" font-family="sans-serif" font-size="13" lengthAdjust="spacing" textLength="138" x="178" y="52.5684">Revert Message/Event</text><!--MD5=[7e75243f5f1e8b98cf416d1db036e411]
link Queue to MS2--><path d="M412.09,30.89 C466.8,30.71 579.12,30.34 639.85,30.14 " fill="none" id="Queue-to-MS2" style="stroke:#000000;stroke-width:1.0;"/><polygon fill="#000000" points="645.21,30.12,636.1986,26.1457,640.21,30.1343,636.2215,34.1457,645.21,30.12" style="stroke:#000000;stroke-width:1.0;"/><text fill="#000000" font-family="sans-serif" font-size="13" lengthAdjust="spacing" textLength="95" x="464.5" y="27.5684">Message/Event</text><!--MD5=[32547e2122949e4513368a92dad85bee]
link MS2 to Queue--><path d="M645.23,41.77 C626.61,47.29 603.33,53.25 582,56 C520.29,63.97 503.07,67.94 442,56 C431.5,53.95 420.53,50.1 410.81,46.02 " fill="none" id="MS2-to-Queue" style="stroke:#000000;stroke-width:1.0;"/><polygon fill="#000000" points="406.15,44.01,412.8466,51.2319,410.7457,45.9796,415.998,43.8787,406.15,44.01" style="stroke:#000000;stroke-width:1.0;"/><text fill="#000000" font-family="sans-serif" font-size="13" lengthAdjust="spacing" textLength="138" x="443" y="52.5684">Revert Message/Event</text><!--MD5=[c7f05cd73814107c2176e064e3bbb08e]
@startuml
<style>
queue {
   LineThickness: 1
   BackGroundColor: white
   LineColor: black
}
interface {
   BackGroundColor: white
   LineColor: black
}
component {
   BackGroundColor: white
   LineColor: black
}
database {
   BackGroundColor: white
   LineColor: black
}
node {
   BackGroundColor: white
   LineColor: black
}
frame {
   BackGroundColor: white
   LineColor: black
}
rectangle{
   BackGroundColor: white
   LineColor: black
}
arrow {
   LineColor: black
}
</style>

'top to bottom direction
left to right direction

component "MS 1" as MS1
rectangle "Local Transaction" as LT1
MS1 -r- LT1

queue Queue

component "MS 2" as MS2
rectangle "Local Transaction" as LT2
MS2 -r- LT2

MS1 - -> Queue : Message/Event
Queue - -> MS2 : Message/Event
MS2 - -> Queue : Revert Message/Event
Queue - -> MS1 : Revert Message/Event
@enduml

@startuml
<style>
queue {
   LineThickness: 1
   BackGroundColor: white
   LineColor: black
}
interface {
   BackGroundColor: white
   LineColor: black
}
component {
   BackGroundColor: white
   LineColor: black
}
database {
   BackGroundColor: white
   LineColor: black
}
node {
   BackGroundColor: white
   LineColor: black
}
frame {
   BackGroundColor: white
   LineColor: black
}
rectangle{
   BackGroundColor: white
   LineColor: black
}
arrow {
   LineColor: black
}
</style>

left to right direction

component "MS 1" as MS1
rectangle "Local Transaction" as LT1
MS1 -r- LT1

queue Queue

component "MS 2" as MS2
rectangle "Local Transaction" as LT2
MS2 -r- LT2

MS1 - -> Queue : Message/Event
Queue - -> MS2 : Message/Event
MS2 - -> Queue : Revert Message/Event
Queue - -> MS1 : Revert Message/Event
@enduml

PlantUML version 1.2022.1(Tue Feb 01 19:19:58 CET 2022)
(GPL source distribution)
Java Runtime: OpenJDK Runtime Environment
JVM: OpenJDK 64-Bit Server VM
Default Encoding: UTF-8
Language: en
Country: GB
--></g></svg>
